# xmcd CD database file
#
# Track frame offsets:
#	150
#	11295
#	22577
#	32297
#	41948
#	52116
#	60759
#	68925
#	82186
#	90518
#	101670
#	113131
#	124594
#	134689
#	146654
#	157625
#	170414
#	182568
#	192948
#	202666
#	216404
#	230347
#	243400
#	256504
#	269562
#	283020
#	295743
#	307390
#	318108
#	326129
#
# Disc length: 4487 seconds
#
# Revision: 0
# Processed by: cddbd v1.5.1PL2 Copyright (c) Steve Scherf et al.
# Submitted via: CDex 1.40Beta9
#
DISCID=a311851e
DTITLE=Jean Boucher - Chérie mon coeur soupire
DYEAR=1900
DGENRE=Country
TTITLE0=Les choses de cette maison
TTITLE1=Un p'tit coup
TTITLE2=Dans les bois
TTITLE3=Chérie, mon coeur soupire
TTITLE4=Colinda
TTITLE5=Comment vas-tu
TTITLE6=Ne me dis rien
TTITLE7=Un amour que je ne connais pas
TTITLE8=Je suis perdu
TTITLE9=J'ai si mal
TTITLE10=Que t'ai-je fait
TTITLE11=La prison
TTITLE12=Viens vers moi
TTITLE13=Reprends ma main
TTITLE14=Il n'y a pas de joie sans peine
TTITLE15=Regarde autour de toi
TTITLE16=Pour un autre
TTITLE17=À qui tu penses
TTITLE18=Je t'aime plus fort
TTITLE19=Plus qu'hier, moins que demain
TTITLE20=Je ne crois plus en ton amour
TTITLE21=Ne me quitte plus
TTITLE22=Someday
TTITLE23=Make Me Your Kind Of Man
TTITLE24=Fool Of The Night
TTITLE25=Less And Less
TTITLE26=Without You
TTITLE27=You Know She's Gone
TTITLE28=High Time I Found
TTITLE29=My Turn Has Come To Go On
EXTD=ID3G: 2
EXTT0=
EXTT1=
EXTT2=
EXTT3=
EXTT4=
EXTT5=
EXTT6=
EXTT7=
EXTT8=
EXTT9=
EXTT10=
EXTT11=
EXTT12=
EXTT13=
EXTT14=
EXTT15=
EXTT16=
EXTT17=
EXTT18=
EXTT19=
EXTT20=
EXTT21=
EXTT22=
EXTT23=
EXTT24=
EXTT25=
EXTT26=
EXTT27=
EXTT28=
EXTT29=
PLAYORDER=
